<svg width="427" height="354" viewBox="0 0 427 354" fill="none" xmlns="http://www.w3.org/2000/svg">
<path d="M410.566 220.787H256.548C252.092 220.787 248.479 217.18 248.479 212.727V107.553C248.479 103.034 252.146 99.3704 256.671 99.3704H409.819C414.687 99.3704 418.635 103.313 418.635 108.177V212.728C418.635 217.18 415.022 220.787 410.566 220.787Z" fill="white"/>
<path d="M410.566 220.787H256.548C252.092 220.787 248.479 217.18 248.479 212.727V107.553C248.479 103.034 252.146 99.3704 256.671 99.3704H409.819C414.687 99.3704 418.635 103.313 418.635 108.177V212.728C418.635 217.18 415.022 220.787 410.566 220.787Z" stroke="white"/>
<path d="M418.635 118.135H248.479V107.537C248.479 103.027 252.14 99.3694 256.656 99.3694H409.834C414.695 99.3694 418.635 103.306 418.635 108.16V118.135Z" fill="#F5F5F5"/>
<path d="M258.95 111.261C260.154 111.261 261.129 110.287 261.129 109.085C261.129 107.883 260.154 106.909 258.95 106.909C257.747 106.909 256.772 107.883 256.772 109.085C256.772 110.287 257.747 111.261 258.95 111.261Z" fill="white"/>
<path d="M265.082 111.261C266.285 111.261 267.261 110.287 267.261 109.085C267.261 107.883 266.285 106.909 265.082 106.909C263.879 106.909 262.904 107.883 262.904 109.085C262.904 110.287 263.879 111.261 265.082 111.261Z" fill="white"/>
<path d="M271.215 111.261C272.418 111.261 273.393 110.287 273.393 109.085C273.393 107.883 272.418 106.909 271.215 106.909C270.012 106.909 269.036 107.883 269.036 109.085C269.036 110.287 270.012 111.261 271.215 111.261Z" fill="white"/>
<path d="M410.566 220.787C410.566 220.787 410.69 220.772 410.934 220.757C411.181 220.751 411.546 220.714 412.022 220.624C412.963 220.449 414.399 220.005 415.83 218.761C417.239 217.553 418.593 215.386 418.562 212.603C418.555 209.834 418.548 206.638 418.541 203.043C418.523 188.65 418.496 167.836 418.464 142.119C418.461 135.688 418.455 128.951 418.45 121.932C418.446 118.422 418.444 114.841 418.442 111.193C418.386 109.37 418.621 107.501 418.088 105.758C417.574 104.017 416.496 102.422 415.01 101.317C413.545 100.179 411.678 99.5854 409.799 99.5698C407.874 99.5707 405.933 99.5716 403.979 99.5726C400.068 99.5744 396.094 99.5762 392.062 99.578C383.997 99.5808 375.699 99.5845 367.187 99.5881C333.144 99.5982 295.717 99.6082 256.433 99.6192C254.047 99.6768 251.722 100.873 250.316 102.788C249.606 103.734 249.1 104.834 248.872 105.993C248.638 107.142 248.739 108.362 248.716 109.577C248.716 114.423 248.716 119.238 248.715 124.016C248.714 133.574 248.713 142.993 248.712 152.246C248.707 170.755 248.702 188.607 248.698 205.614C248.697 207.74 248.696 209.852 248.695 211.951C248.563 214.032 249.148 216.086 250.442 217.659C251.709 219.233 253.591 220.274 255.57 220.507C256.549 220.614 257.588 220.561 258.599 220.574C259.614 220.574 260.626 220.576 261.634 220.576C269.699 220.58 277.529 220.584 285.099 220.589C300.24 220.598 314.342 220.608 327.218 220.617C352.962 220.649 373.797 220.675 388.204 220.692C395.399 220.712 400.987 220.726 404.785 220.737C406.674 220.748 408.117 220.756 409.095 220.76C410.069 220.77 410.566 220.787 410.566 220.787C410.566 220.787 410.069 220.803 409.096 220.811C408.118 220.817 406.674 220.824 404.786 220.834C400.988 220.845 395.4 220.859 388.205 220.879C373.799 220.897 352.964 220.922 327.219 220.954C314.343 220.963 300.241 220.973 285.1 220.984C277.53 220.988 269.7 220.992 261.635 220.995C260.626 220.997 259.615 220.997 258.6 220.997C257.582 220.982 256.575 221.042 255.52 220.929C253.433 220.684 251.446 219.587 250.111 217.93C249.44 217.105 248.928 216.145 248.618 215.12C248.29 214.104 248.235 212.987 248.262 211.952C248.261 209.853 248.26 207.741 248.259 205.615C248.255 188.608 248.25 170.757 248.245 152.247C248.245 142.993 248.243 133.575 248.242 124.017C248.241 119.238 248.241 114.424 248.241 109.578C248.265 108.376 248.157 107.147 248.405 105.901C248.647 104.672 249.183 103.505 249.936 102.502C251.426 100.474 253.889 99.2048 256.419 99.1436C295.709 99.1454 333.139 99.1481 367.187 99.1499C375.699 99.1536 383.997 99.1564 392.062 99.16C396.093 99.1618 400.067 99.1637 403.979 99.1655C405.934 99.1664 407.875 99.1673 409.799 99.1682C411.763 99.1847 413.719 99.8104 415.248 101.001C416.802 102.159 417.928 103.827 418.461 105.648C418.748 106.555 418.815 107.516 418.825 108.443C418.825 109.363 418.825 110.28 418.823 111.192C418.821 114.84 418.82 118.42 418.818 121.931C418.812 128.95 418.807 135.687 418.801 142.118C418.769 167.834 418.744 188.648 418.726 203.042C418.717 206.638 418.71 209.833 418.703 212.602C418.72 215.43 417.328 217.622 415.894 218.834C414.434 220.081 412.978 220.511 412.03 220.672C411.55 220.755 411.182 220.783 410.936 220.779C410.69 220.789 410.566 220.787 410.566 220.787Z" fill="#AAAAAA"/>
<path d="M407 193.41H271.159V129.299H407V193.41ZM271.467 193.104H406.693V129.606H271.467V193.104Z" fill="#EBEBEB"/>
<path d="M406.846 182.468H271.313V182.776H406.846V182.468Z" fill="#EBEBEB"/>
<path d="M406.846 171.835H271.313V172.141H406.846V171.835Z" fill="#EBEBEB"/>
<path d="M406.846 161.2H271.313V161.507H406.846V161.2Z" fill="#EBEBEB"/>
<path d="M406.846 150.565H271.313V150.873H406.846V150.565Z" fill="#EBEBEB"/>
<path d="M406.846 139.932H271.313V140.24H406.846V139.932Z" fill="#EBEBEB"/>
<path d="M288.623 150.467H284.158V193.592H288.623V150.467Z" fill="url(#paint0_linear_671_834)"/>
<path d="M296.741 140.037H291.224V193.592H296.741V140.037Z" fill="url(#paint1_linear_671_834)"/>
<path d="M319.875 181.356H315.409V193.592H319.875V181.356Z" fill="url(#paint2_linear_671_834)"/>
<path d="M326.941 156.155H322.475V193.592H326.941V156.155Z" fill="url(#paint3_linear_671_834)"/>
<path d="M349.022 132.039H344.557V193.592H349.022V132.039Z" fill="url(#paint4_linear_671_834)"/>
<path d="M357.139 178.916H352.673V193.591H357.139V178.916Z" fill="url(#paint5_linear_671_834)"/>
<path d="M378.172 138.272H373.706V193.592H378.172V138.272Z" fill="url(#paint6_linear_671_834)"/>
<path d="M385.235 161.79H380.77V193.592H385.235V161.79Z" fill="url(#paint7_linear_671_834)"/>
<path d="M261.122 138.236C262.941 138.236 264.416 136.763 264.416 134.946C264.416 133.13 262.941 131.657 261.122 131.657C259.304 131.657 257.829 133.13 257.829 134.946C257.829 136.763 259.304 138.236 261.122 138.236Z" fill="#E0E0E0"/>
<path d="M261.122 151.44C262.941 151.44 264.416 149.967 264.416 148.15C264.416 146.334 262.941 144.861 261.122 144.861C259.304 144.861 257.829 146.334 257.829 148.15C257.829 149.967 259.304 151.44 261.122 151.44Z" fill="#E0E0E0"/>
<path d="M261.122 164.644C262.941 164.644 264.416 163.171 264.416 161.354C264.416 159.537 262.941 158.065 261.122 158.065C259.304 158.065 257.829 159.537 257.829 161.354C257.829 163.171 259.304 164.644 261.122 164.644Z" fill="#E0E0E0"/>
<path d="M261.122 177.849C262.941 177.849 264.416 176.376 264.416 174.559C264.416 172.743 262.941 171.27 261.122 171.27C259.304 171.27 257.829 172.743 257.829 174.559C257.829 176.376 259.304 177.849 261.122 177.849Z" fill="#E0E0E0"/>
<path d="M261.122 191.053C262.941 191.053 264.416 189.58 264.416 187.763C264.416 185.946 262.941 184.474 261.122 184.474C259.304 184.474 257.829 185.946 257.829 187.763C257.829 189.58 259.304 191.053 261.122 191.053Z" fill="#E0E0E0"/>
<path d="M293.732 202.874H283.516C282.839 202.874 282.29 202.326 282.29 201.65V200.207C282.29 199.531 282.839 198.982 283.516 198.982H293.732C294.409 198.982 294.957 199.531 294.957 200.207V201.65C294.957 202.326 294.409 202.874 293.732 202.874Z" fill="#E0E0E0"/>
<path d="M323.482 202.874H313.268C312.591 202.874 312.041 202.326 312.041 201.65V200.207C312.041 199.531 312.591 198.982 313.268 198.982H323.482C324.158 198.982 324.708 199.531 324.708 200.207V201.65C324.707 202.326 324.158 202.874 323.482 202.874Z" fill="#E0E0E0"/>
<path d="M355.273 202.874H345.057C344.381 202.874 343.832 202.326 343.832 201.65V200.207C343.832 199.531 344.381 198.982 345.057 198.982H355.273C355.95 198.982 356.498 199.531 356.498 200.207V201.65C356.498 202.326 355.95 202.874 355.273 202.874Z" fill="#E0E0E0"/>
<path d="M385.878 202.874H375.663C374.987 202.874 374.438 202.326 374.438 201.65V200.207C374.438 199.531 374.987 198.982 375.663 198.982H385.879C386.556 198.982 387.104 199.531 387.104 200.207V201.65C387.103 202.326 386.555 202.874 385.878 202.874Z" fill="#E0E0E0"/>
<path d="M98.6926 340.985C100.288 335.77 98.7305 329.723 94.8151 325.923C90.8997 322.125 84.8038 320.744 79.6309 322.488C79.7365 316.681 76.4016 310.942 71.3028 308.152C66.204 305.362 59.5664 305.645 54.7256 308.86C52.0057 303.67 44.7836 301.438 39.6051 304.19C34.4273 306.941 32.2419 314.171 35.0311 319.325C30.7876 318.276 25.9751 320.234 23.6712 323.944C21.368 327.655 21.7534 332.833 24.5797 336.163C16.1121 332.437 4.98512 339.928 5.26646 349.168L108.078 348.871C107.346 347.498 104.811 341.231 98.6926 340.985Z" fill="url(#paint8_linear_671_834)"/>
<path d="M284.308 340.985C285.903 335.77 284.346 329.723 280.431 325.923C276.515 322.125 270.419 320.745 265.247 322.488C265.352 316.681 262.017 310.942 256.918 308.152C251.82 305.362 245.182 305.647 240.341 308.86C237.622 303.67 230.399 301.438 225.222 304.19C220.043 306.941 217.858 314.171 220.648 319.325C216.404 318.276 211.592 320.234 209.288 323.944C206.985 327.655 207.369 332.833 210.196 336.163C201.729 332.437 190.602 339.928 190.883 349.168L293.695 348.871C292.962 347.498 290.426 341.231 284.308 340.985Z" fill="url(#paint9_linear_671_834)"/>
<path d="M149.109 214.027H143.867H131.562V331.255H143.867H149.109H161.413V214.027H149.109Z" fill="white"/>
<path d="M149.109 214.027C149.109 214.027 149.375 214.011 149.901 214.005C150.438 213.999 151.219 213.993 152.247 213.984C154.33 213.974 157.402 213.96 161.413 213.943L161.499 213.941V214.027C161.521 234.056 161.57 278.292 161.629 331.255V331.469H161.413C155.806 331.469 149.882 331.47 143.874 331.47C139.695 331.47 135.556 331.47 131.562 331.47H131.346V331.255C131.396 280.006 131.439 236.346 131.461 214.027V213.927H131.562C137.26 213.947 141.643 213.963 144.614 213.974C146.086 213.987 147.206 213.994 147.971 214.001C148.725 214.009 149.109 214.027 149.109 214.027C149.109 214.027 148.725 214.044 147.972 214.054C147.207 214.06 146.087 214.068 144.615 214.079C141.644 214.09 137.261 214.107 131.562 214.128L131.663 214.027C131.685 236.346 131.729 280.007 131.778 331.255L131.562 331.039C135.556 331.037 139.695 331.037 143.874 331.037C149.882 331.037 155.806 331.039 161.413 331.039L161.197 331.255C161.256 278.292 161.305 234.056 161.327 214.027L161.412 214.112C157.4 214.095 154.328 214.08 152.245 214.071C151.217 214.061 150.436 214.054 149.899 214.049C149.375 214.043 149.109 214.027 149.109 214.027Z" fill="#989898"/>
<path d="M222.476 332.114C221.197 328.677 219.071 325.438 215.954 323.502C212.838 321.567 208.634 321.16 205.51 323.083C205.519 318.615 203.371 314.189 199.853 311.427C196.335 308.666 191.521 307.628 187.176 308.693C187.668 304.972 186.18 301.046 183.343 298.585C180.506 296.123 176.407 295.2 172.787 296.207C174.577 290.357 169.536 284.498 163.531 283.299H161.538C161.538 283.299 148.917 282.991 147.369 283.299C146.835 283.406 146.312 283.562 145.797 283.738C145.282 283.562 144.76 283.406 144.225 283.299H142.232C142.232 283.299 129.611 282.989 128.063 283.299C122.058 284.498 117.018 290.358 118.807 296.207C115.188 295.2 111.088 296.123 108.252 298.585C105.415 301.046 103.926 304.972 104.419 308.693C100.074 307.628 95.2609 308.666 91.743 311.427C88.225 314.189 86.0767 318.615 86.0848 323.083C82.961 321.159 78.7579 321.567 75.6406 323.502C72.5233 325.438 70.3983 328.678 69.119 332.114C67.0956 337.548 67.0142 343.681 68.8941 349.169H203.396H222.701C224.581 343.681 224.5 337.548 222.476 332.114Z" fill="white"/>
<path d="M131.744 282.865C131.744 282.873 131.664 282.882 131.506 282.895C131.326 282.906 131.095 282.922 130.802 282.941C130.155 282.974 129.241 283.02 128.066 283.079L128.078 283.078C126.344 283.46 123.965 284.369 121.822 286.453C120.764 287.487 119.783 288.819 119.168 290.441C118.541 292.053 118.425 293.986 118.972 295.86L119.058 296.156L118.762 296.074C115.733 295.242 111.927 295.726 108.945 297.98C105.978 300.194 104.103 304.265 104.63 308.366L104.669 308.673L104.369 308.6C100.938 307.77 97.0521 308.236 93.7671 310.054C91.3842 311.353 89.4802 313.347 88.2097 315.601C86.9401 317.858 86.2976 320.373 86.2927 322.784L86.2919 323.155L85.9759 322.962C83.5793 321.488 80.6241 321.463 78.1783 322.246C75.6897 323.03 73.7026 324.697 72.2371 326.521C70.7748 328.371 69.7792 330.397 69.0989 332.348C68.4007 334.298 68.0243 336.189 67.8228 337.912C67.4286 341.376 67.8074 344.164 68.1815 346.02C68.3693 346.952 68.562 347.662 68.6998 348.138C68.7627 348.361 68.8135 348.539 68.8538 348.681C68.8868 348.804 68.9005 348.866 68.8941 348.87C68.8941 348.87 68.4797 347.913 68.0444 346.05C67.6252 344.192 67.202 341.386 67.5632 337.885C67.7486 336.141 68.1121 334.225 68.8046 332.245C69.4793 330.263 70.4749 328.199 71.959 326.3C73.4447 324.428 75.4826 322.696 78.059 321.876C80.5845 321.056 83.6599 321.061 86.1936 322.607L85.8768 322.785C85.876 320.3 86.533 317.714 87.8357 315.391C89.1376 313.073 91.1013 311.014 93.5567 309.674C96.9401 307.802 100.932 307.326 104.468 308.187L104.207 308.422C103.669 304.153 105.62 299.955 108.706 297.666C111.807 295.343 115.728 294.864 118.852 295.744L118.643 295.958C118.083 294.003 118.223 291.99 118.883 290.332C119.531 288.665 120.55 287.311 121.641 286.265C123.851 284.161 126.281 283.275 128.047 282.925L128.053 282.923H128.059C129.235 282.895 130.149 282.874 130.797 282.859C131.09 282.856 131.322 282.854 131.502 282.852C131.662 282.856 131.743 282.86 131.744 282.865Z" fill="#989898"/>
<path d="M222.702 348.871C222.696 348.868 222.71 348.805 222.743 348.683C222.783 348.539 222.834 348.362 222.897 348.138C223.034 347.66 223.227 346.949 223.415 346.015C223.789 344.156 224.169 341.363 223.77 337.898C223.567 336.171 223.188 334.281 222.489 332.33C221.807 330.38 220.81 328.356 219.346 326.508C217.879 324.685 215.891 323.025 213.405 322.245C210.961 321.464 208.012 321.494 205.621 322.964L205.301 323.16L205.303 322.786C205.321 318.228 202.918 313.217 198.549 310.482C195.112 308.309 190.893 307.708 187.228 308.601L186.929 308.675L186.968 308.37C187.497 304.233 185.596 300.154 182.62 297.957C179.63 295.716 175.843 295.244 172.833 296.072L172.551 296.15L172.628 295.862C172.905 294.843 173.047 293.819 172.964 292.833C172.867 291.854 172.662 290.914 172.286 290.082C171.587 288.393 170.502 287.065 169.392 286.074C168.283 285.072 167.136 284.391 166.117 283.935C165.619 283.678 165.124 283.544 164.697 283.376C164.257 283.245 163.861 283.151 163.521 283.057L163.531 283.059C162.868 283.047 162.373 283.038 162.021 283.032C161.695 283.022 161.538 283.004 161.538 283.004C161.538 283.004 161.694 282.985 162.021 282.976C162.374 282.969 162.868 282.959 163.531 282.949H163.537H163.542C163.889 283.034 164.292 283.117 164.739 283.24C165.174 283.398 165.679 283.526 166.189 283.778C167.23 284.221 168.405 284.894 169.547 285.901C170.689 286.896 171.815 288.238 172.551 289.972C172.945 290.826 173.167 291.796 173.273 292.809C173.368 293.831 173.229 294.897 172.947 295.96L172.743 295.751C175.844 294.878 179.745 295.339 182.852 297.647C185.947 299.918 187.926 304.122 187.386 308.426L187.126 308.193C190.903 307.265 195.238 307.878 198.78 310.117C203.287 312.943 205.746 318.09 205.718 322.788L205.4 322.61C207.928 321.067 210.998 321.058 213.522 321.873C216.096 322.692 218.137 324.417 219.623 326.287C221.109 328.183 222.107 330.246 222.784 332.227C223.476 334.209 223.843 336.125 224.029 337.871C224.394 341.375 223.97 344.185 223.551 346.046C223.118 347.912 222.702 348.871 222.702 348.871Z" fill="#989898"/>
<path d="M110.847 49.7406C109.026 47.3055 105.411 47.1743 103.474 49.5175C100.104 53.5946 95.6849 60.7066 95.6849 69.9662C95.6849 84.9319 95.6849 183.465 95.6849 183.465H105.131H116.533C116.533 183.465 117.838 84.9319 117.838 69.9662C117.837 60.8725 113.92 53.8506 110.847 49.7406Z" fill="url(#paint10_linear_671_834)"/>
<path d="M110.846 49.7406C110.846 49.7406 111.44 50.4541 112.411 51.935C113.369 53.4174 114.725 55.6794 115.905 58.8497C117.084 62.0039 118.05 66.1171 117.94 70.9454C117.895 75.7536 117.842 81.2374 117.783 87.3139C117.521 111.634 117.158 145.448 116.747 183.469L116.745 183.682H116.532C111.77 183.682 106.714 183.682 101.599 183.682C99.5729 183.682 97.5568 183.682 95.6849 183.682H95.4681V183.466C95.4939 143.32 95.5173 107.25 95.5342 81.2036C95.5398 77.9487 95.5447 74.8517 95.5495 71.9222C95.5519 70.4607 95.539 69.0297 95.6607 67.6487C95.7551 66.2661 95.9921 64.9422 96.2589 63.6756C97.4068 58.6057 99.618 54.6229 101.721 51.6773C102.243 50.9324 102.777 50.26 103.285 49.6351C103.79 49.0006 104.406 48.5118 105.05 48.2203C106.349 47.6292 107.633 47.7235 108.531 48.0343C109.45 48.3371 110.034 48.8234 110.37 49.1745C110.712 49.5256 110.846 49.7406 110.846 49.7406C110.834 49.7511 110.688 49.5441 110.34 49.2051C109.998 48.8677 109.412 48.3999 108.505 48.1148C107.618 47.8217 106.362 47.7468 105.104 48.333C103.809 48.8943 102.93 50.3349 101.856 51.7715C99.7825 54.7195 97.6067 58.691 96.4911 63.7255C96.2315 64.9833 96.0025 66.2967 95.9147 67.668C95.7994 69.0354 95.8171 70.4542 95.8204 71.9214C95.8252 74.8509 95.83 77.9487 95.8357 81.2028C95.8526 107.248 95.876 143.319 95.9018 183.465L95.6849 183.248C97.5568 183.248 99.5737 183.248 101.599 183.248C106.714 183.25 111.77 183.25 116.532 183.25L116.317 183.462C116.781 145.444 117.195 111.631 117.492 87.3122C117.574 81.2366 117.647 75.7536 117.712 70.9446C117.842 66.138 116.907 62.0546 115.757 58.9036C114.605 55.7398 113.276 53.4714 112.343 51.9776C111.875 51.2279 111.489 50.6755 111.232 50.3043C110.972 49.9355 110.846 49.7406 110.846 49.7406Z" fill="#D9D9D9"/>
<path d="M106.938 137.052C112.786 137.052 117.528 136.955 117.528 136.836C117.528 136.716 112.786 136.619 106.938 136.619C101.089 136.619 96.3476 136.716 96.3476 136.836C96.3476 136.955 101.089 137.052 106.938 137.052Z" fill="#D9D9D9"/>
<path d="M106.938 150.229C112.786 150.229 117.528 150.131 117.528 150.011C117.528 149.891 112.786 149.794 106.938 149.794C101.089 149.794 96.3476 149.891 96.3476 150.011C96.3476 150.131 101.089 150.229 106.938 150.229Z" fill="#D9D9D9"/>
<path d="M106.938 71.17C112.786 71.17 117.528 71.0731 117.528 70.9534C117.528 70.8338 112.786 70.7368 106.938 70.7368C101.089 70.7368 96.3476 70.8338 96.3476 70.9534C96.3476 71.0731 101.089 71.17 106.938 71.17Z" fill="#D9D9D9"/>
<path d="M106.938 84.3464C112.786 84.3464 117.528 84.2495 117.528 84.1298C117.528 84.0102 112.786 83.9132 106.938 83.9132C101.089 83.9132 96.3476 84.0102 96.3476 84.1298C96.3476 84.2495 101.089 84.3464 106.938 84.3464Z" fill="#D9D9D9"/>
<path d="M106.938 97.5228C112.786 97.5228 117.528 97.4258 117.528 97.3062C117.528 97.1866 112.786 97.0896 106.938 97.0896C101.089 97.0896 96.3476 97.1866 96.3476 97.3062C96.3476 97.4258 101.089 97.5228 106.938 97.5228Z" fill="#D9D9D9"/>
<path d="M106.938 110.699C112.786 110.699 117.528 110.602 117.528 110.483C117.528 110.363 112.786 110.266 106.938 110.266C101.089 110.266 96.3476 110.363 96.3476 110.483C96.3476 110.602 101.089 110.699 106.938 110.699Z" fill="#D9D9D9"/>
<path d="M106.938 123.876C112.786 123.876 117.528 123.779 117.528 123.659C117.528 123.539 112.786 123.443 106.938 123.443C101.089 123.443 96.3476 123.539 96.3476 123.659C96.3476 123.779 101.089 123.876 106.938 123.876Z" fill="#D9D9D9"/>
<path d="M187.354 50.2245C185.533 47.7894 181.919 47.6581 179.981 50.0022C176.611 54.0793 172.192 61.1905 172.192 70.4509C172.192 85.4166 172.192 183.95 172.192 183.95H181.638H193.04C193.04 183.95 194.345 85.4166 194.345 70.4509C194.345 61.3572 190.428 54.3353 187.354 50.2245Z" fill="url(#paint11_linear_671_834)"/>
<path d="M187.354 50.2245C187.354 50.2245 187.947 50.938 188.918 52.4188C189.876 53.9013 191.232 56.1633 192.412 59.3336C193.592 62.487 194.557 66.601 194.448 71.4293C194.401 76.2375 194.349 81.7213 194.29 87.7977C194.029 112.118 193.665 145.932 193.255 183.953L193.253 184.166H193.039C188.278 184.166 183.221 184.166 178.107 184.166C176.081 184.166 174.064 184.166 172.192 184.166H171.975V183.95C172.001 143.804 172.025 107.733 172.041 81.6875C172.047 78.4326 172.053 75.3356 172.057 72.4061C172.06 70.9445 172.046 69.5144 172.169 68.1326C172.263 66.75 172.5 65.4261 172.767 64.1595C173.914 59.0896 176.126 55.1068 178.229 52.1612C178.751 51.4163 179.285 50.7439 179.793 50.119C180.298 49.4845 180.914 48.9957 181.557 48.7042C182.856 48.1131 184.14 48.2074 185.038 48.519C185.957 48.8218 186.54 49.3081 186.876 49.6592C187.219 50.0103 187.354 50.2245 187.354 50.2245C187.341 50.235 187.196 50.028 186.848 49.689C186.505 49.3516 185.92 48.8838 185.013 48.5987C184.126 48.3056 182.87 48.2307 181.612 48.8169C180.318 49.3782 179.438 50.8188 178.364 52.2554C176.29 55.2026 174.115 59.1749 172.999 64.2094C172.74 65.4672 172.51 66.7806 172.423 68.1519C172.307 69.5192 172.325 70.9381 172.328 72.4053C172.333 75.3348 172.338 78.4326 172.344 81.6867C172.361 107.732 172.384 143.802 172.41 183.949L172.193 183.733C174.065 183.733 176.082 183.732 178.108 183.732C183.223 183.733 188.278 183.733 193.04 183.733L192.825 183.946C193.289 145.928 193.703 112.115 193.999 87.7961C194.082 81.7205 194.154 76.2375 194.219 71.4285C194.349 66.6219 193.414 62.5385 192.263 59.3875C191.111 56.2237 189.783 53.9561 188.85 52.4615C188.382 51.7118 187.996 51.1594 187.738 50.7882C187.479 50.4202 187.354 50.2245 187.354 50.2245Z" fill="#D9D9D9"/>
<path d="M183.407 71.6548C189.256 71.6548 193.998 71.5578 193.998 71.4382C193.998 71.3185 189.256 71.2216 183.407 71.2216C177.558 71.2216 172.816 71.3185 172.816 71.4382C172.816 71.5578 177.558 71.6548 183.407 71.6548Z" fill="#D9D9D9"/>
<path d="M183.407 84.8312C189.256 84.8312 193.998 84.7342 193.998 84.6146C193.998 84.4949 189.256 84.3979 183.407 84.3979C177.558 84.3979 172.816 84.4949 172.816 84.6146C172.816 84.7342 177.558 84.8312 183.407 84.8312Z" fill="#D9D9D9"/>
<path d="M183.407 98.0076C189.256 98.0076 193.998 97.9106 193.998 97.791C193.998 97.6713 189.256 97.5743 183.407 97.5743C177.558 97.5743 172.816 97.6713 172.816 97.791C172.816 97.9106 177.558 98.0076 183.407 98.0076Z" fill="#D9D9D9"/>
<path d="M183.407 111.184C189.256 111.184 193.998 111.087 193.998 110.967C193.998 110.848 189.256 110.751 183.407 110.751C177.558 110.751 172.816 110.848 172.816 110.967C172.816 111.087 177.558 111.184 183.407 111.184Z" fill="#D9D9D9"/>
<path d="M183.407 124.36C189.256 124.36 193.998 124.263 193.998 124.144C193.998 124.024 189.256 123.927 183.407 123.927C177.558 123.927 172.816 124.024 172.816 124.144C172.816 124.263 177.558 124.36 183.407 124.36Z" fill="#D9D9D9"/>
<path d="M183.407 137.536C189.256 137.536 193.998 137.439 193.998 137.319C193.998 137.2 189.256 137.103 183.407 137.103C177.558 137.103 172.816 137.2 172.816 137.319C172.816 137.439 177.558 137.536 183.407 137.536Z" fill="#D9D9D9"/>
<path d="M183.407 150.713C189.256 150.713 193.998 150.616 193.998 150.496C193.998 150.376 189.256 150.278 183.407 150.278C177.558 150.278 172.816 150.376 172.816 150.496C172.816 150.616 177.558 150.713 183.407 150.713Z" fill="#D9D9D9"/>
<path d="M152.88 12.0377C148.349 8.62178 141.951 9.22008 137.523 12.8953C124.339 23.8379 117.838 40.2192 117.838 53.1854C117.838 74.1414 117.838 199.81 117.838 199.81H141.376H169.788C169.788 199.81 173.039 74.1414 173.039 53.1854C173.038 40.4527 164.44 20.7505 152.88 12.0377Z" fill="url(#paint12_linear_671_834)"/>
<path d="M152.88 12.0377C152.88 12.0377 153.142 12.2358 153.642 12.6401C154.129 13.058 154.92 13.608 155.803 14.5066C157.654 16.2025 160.181 18.9694 162.832 22.9779C164.121 25.0015 165.531 27.2788 166.807 29.9184C168.115 32.5379 169.391 35.4699 170.461 38.7303C171.537 41.9844 172.477 45.5581 172.925 49.4443C172.974 49.9306 173.05 50.4178 173.077 50.913C173.097 51.4091 173.118 51.9083 173.139 52.4108C173.205 53.4182 173.149 54.432 173.157 55.4635C173.137 57.525 173.115 59.6412 173.094 61.8114C172.567 96.5267 171.383 144.95 170.002 199.817L169.996 200.026H169.787C158.945 200.026 147.571 200.028 135.997 200.028C129.776 200.028 123.614 200.028 117.838 200.028H117.622V199.812C117.63 170.472 117.637 142.715 117.644 117.583C117.651 105.017 117.658 93.1076 117.665 81.9846C117.669 76.4235 117.673 71.0589 117.678 65.9069C117.68 63.3309 117.682 60.8088 117.684 58.3407C117.703 55.8718 117.645 53.4657 117.756 51.0999C118.015 46.377 119.021 41.957 120.356 37.9323C121.703 33.9052 123.441 30.2768 125.35 27.067C129.202 20.6499 133.694 15.9231 137.753 12.6199C139.824 10.9764 142.104 10.18 144.091 9.86595C146.098 9.58733 147.832 9.79025 149.155 10.1639C150.489 10.5375 151.404 11.0762 152.014 11.4225C152.593 11.8235 152.88 12.0377 152.88 12.0377C152.88 12.0377 152.576 11.8453 151.991 11.4571C151.376 11.1229 150.459 10.6003 149.132 10.242C147.814 9.88447 146.094 9.69684 144.108 9.98593C142.142 10.3096 139.89 11.1109 137.85 12.7447C133.824 16.0535 129.363 20.782 125.547 27.1838C123.655 30.3863 121.936 34.0043 120.604 38.0153C119.285 42.0238 118.295 46.4237 118.048 51.1144C118.049 88.7955 118.05 141.135 118.053 199.81L117.836 199.595C123.613 199.595 129.775 199.593 135.995 199.593C147.57 199.595 158.943 199.595 169.786 199.596L169.571 199.804C170.968 144.939 172.205 96.5155 172.808 61.8057C172.835 59.6364 172.86 57.521 172.886 55.4603C172.88 54.432 172.938 53.4109 172.875 52.4156C172.855 51.9164 172.836 51.4212 172.817 50.9291C172.792 50.4379 172.717 49.9532 172.669 49.47C172.236 45.608 171.309 42.044 170.247 38.7988C169.19 35.5455 167.929 32.6176 166.635 30.0006C165.373 27.3633 163.977 25.0853 162.701 23.0609C160.077 19.0507 157.576 16.2742 155.746 14.563C154.874 13.6571 154.094 13.0974 153.615 12.6698C153.126 12.2576 152.88 12.0377 152.88 12.0377Z" fill="#D9D9D9"/>
<path d="M142.423 13.9663C142.423 13.9663 122.431 30.011 122.261 51.517V108.84H130.83L130.306 58.9028C130.306 58.9028 129.213 49.4153 134.377 32.7408C137.636 22.2218 142.423 13.9663 142.423 13.9663Z" fill="white"/>
<path d="M172.034 58.9036C172.034 59.0228 160.115 59.1202 145.417 59.1202C130.713 59.1202 118.797 59.0236 118.797 58.9036C118.797 58.7836 130.714 58.687 145.417 58.687C160.115 58.687 172.034 58.7836 172.034 58.9036Z" fill="#D9D9D9"/>
<path d="M172.034 78.853C172.034 78.9721 160.115 79.0696 145.417 79.0696C130.713 79.0696 118.797 78.9729 118.797 78.853C118.797 78.733 130.714 78.6364 145.417 78.6364C160.115 78.6364 172.034 78.733 172.034 78.853Z" fill="#D9D9D9"/>
<path d="M172.034 98.8024C172.034 98.9216 160.115 99.019 145.417 99.019C130.713 99.019 118.797 98.9224 118.797 98.8024C118.797 98.6824 130.714 98.5858 145.417 98.5858C160.115 98.5858 172.034 98.6824 172.034 98.8024Z" fill="#D9D9D9"/>
<path d="M172.034 118.752C172.034 118.871 160.115 118.968 145.417 118.968C130.713 118.968 118.797 118.871 118.797 118.752C118.797 118.633 130.714 118.535 145.417 118.535C160.115 118.535 172.034 118.632 172.034 118.752Z" fill="#D9D9D9"/>
<path d="M111.432 198.363H97.7962V207.202H111.432V198.363Z" fill="url(#paint13_linear_671_834)"/>
<path d="M93.8986 212.03C93.8986 210.644 94.2533 209.407 95.8067 207.883L97.7954 205.969L111.431 206.134L112.635 207.202C113.731 208.063 114.801 209.728 114.801 211.073V211.268L93.8986 212.03Z" fill="url(#paint14_linear_671_834)"/>
<path d="M115.329 213.675H93.6398C93.0134 213.675 92.5056 213.167 92.5056 212.541V212.401C92.5056 211.776 93.0134 211.268 93.6398 211.268H115.329C115.956 211.268 116.464 211.776 116.464 212.401V212.541C116.464 213.167 115.956 213.675 115.329 213.675Z" fill="url(#paint15_linear_671_834)"/>
<path d="M80.9094 196.59V170.972L115.575 137.001L130.347 90.7765V203.458L80.9094 196.59Z" fill="url(#paint16_linear_671_834)"/>
<path d="M80.9094 188.13L130.34 194.693V203.458L80.9094 196.59V188.13Z" fill="url(#paint17_linear_671_834)"/>
<path d="M80.9094 196.59C80.9094 196.59 81.2182 196.62 81.8034 196.696C82.3975 196.775 83.2617 196.887 84.3895 197.036C86.6636 197.342 89.9945 197.791 94.2742 198.367C102.833 199.536 115.176 201.222 130.37 203.296L130.184 203.458C130.17 178.87 130.152 146.323 130.132 110.729C130.132 103.952 130.132 97.2861 130.133 90.7764L130.552 90.8417C125.246 107.419 120.252 123.016 115.757 137.058L115.742 137.103L115.708 137.136C101.824 150.705 89.9469 162.313 80.9965 171.06L81.0328 170.972C81.0046 179.05 80.982 185.439 80.9659 189.822C80.9522 192.01 80.9425 193.695 80.9352 194.844C80.9296 195.408 80.9247 195.839 80.9215 196.143C80.9183 196.436 80.9094 196.59 80.9094 196.59C80.9094 196.59 80.9006 196.45 80.8965 196.166C80.8933 195.867 80.8885 195.443 80.8828 194.887C80.8764 193.742 80.8659 192.067 80.8522 189.891C80.8369 185.491 80.8143 179.079 80.7853 170.973V170.922L80.8224 170.885C89.7486 162.112 101.594 150.472 115.441 136.866L115.393 136.943C119.874 122.896 124.851 107.295 130.142 90.712L130.56 89.4003V90.7773C130.561 97.2861 130.562 103.953 130.563 110.73C130.543 146.324 130.524 178.871 130.51 203.459V203.647L130.324 203.621C115.101 201.471 102.735 199.723 94.1597 198.511C89.8994 197.9 86.5838 197.425 84.3201 197.102C83.2069 196.94 82.354 196.814 81.7671 196.729C81.194 196.642 80.9094 196.59 80.9094 196.59Z" fill="#D9D9D9"/>
<path d="M190.651 198.363H177.015V207.202H190.651V198.363Z" fill="url(#paint18_linear_671_834)"/>
<path d="M173.118 212.03C173.118 210.644 173.472 209.407 175.026 207.883L177.015 205.969L190.651 206.134L191.854 207.202C192.95 208.063 194.021 209.728 194.021 211.073V211.268L173.118 212.03Z" fill="url(#paint19_linear_671_834)"/>
<path d="M194.549 213.675H172.86C172.233 213.675 171.725 213.167 171.725 212.541V212.401C171.725 211.776 172.233 211.268 172.86 211.268H194.548C195.175 211.268 195.683 211.776 195.683 212.401V212.541C195.683 213.167 195.175 213.675 194.549 213.675Z" fill="url(#paint20_linear_671_834)"/>
<path d="M178.348 186.582C178.987 186.582 179.506 186.064 179.506 185.425C179.506 184.786 178.987 184.268 178.348 184.268C177.708 184.268 177.189 184.786 177.189 185.425C177.189 186.064 177.708 186.582 178.348 186.582Z" fill="#EBEBEB"/>
<path d="M161.325 77.2819C161.246 70.2368 157.36 64.0057 153.434 57.9196C151.78 55.3548 150.185 53.8103 148.883 52.8803C147.057 51.5758 144.537 51.5782 142.726 52.9012C141.448 53.8329 139.88 55.3742 138.238 57.9196C134.312 64.0057 130.427 70.2376 130.347 77.2819C130.253 85.5294 130.347 203.458 130.347 203.458H145.437H146.236H161.325C161.325 203.458 161.418 85.5286 161.325 77.2819Z" fill="url(#paint21_linear_671_834)"/>
<path d="M154.501 59.2007C152.616 56.1037 150.798 54.2379 149.315 53.1146C147.234 51.5387 144.363 51.5427 142.299 53.1395C140.843 54.2653 139.057 56.1262 137.186 59.2007C134.602 63.4468 132.5 67.6229 131.033 72.2507L160.614 72.154C159.291 67.7187 157.053 63.3945 154.501 59.2007Z" fill="url(#paint22_linear_671_834)"/>
<path d="M145.829 72.4135C153.998 72.3866 160.619 72.2678 160.619 72.1482C160.619 72.0285 153.996 71.9534 145.827 71.9803C137.659 72.0072 131.037 72.126 131.037 72.2457C131.038 72.3653 137.66 72.4405 145.829 72.4135Z" fill="#D9D9D9"/>
<path d="M134.514 70.1449C134.823 70.1449 135.074 69.8947 135.074 69.5861C135.074 69.2774 134.823 69.0272 134.514 69.0272C134.205 69.0272 133.955 69.2774 133.955 69.5861C133.955 69.8947 134.205 70.1449 134.514 70.1449Z" fill="#D9D9D9"/>
<path d="M139.861 70.1458C140.17 70.1458 140.421 69.8952 140.421 69.5861C140.421 69.2771 140.17 69.0265 139.861 69.0265C139.551 69.0265 139.3 69.2771 139.3 69.5861C139.3 69.8952 139.551 70.1458 139.861 70.1458Z" fill="#D9D9D9"/>
<path d="M145.207 70.1449C145.516 70.1449 145.766 69.8947 145.766 69.5861C145.766 69.2774 145.516 69.0272 145.207 69.0272C144.898 69.0272 144.647 69.2774 144.647 69.5861C144.647 69.8947 144.898 70.1449 145.207 70.1449Z" fill="#D9D9D9"/>
<path d="M150.554 70.1449C150.863 70.1449 151.113 69.8947 151.113 69.5861C151.113 69.2774 150.863 69.0272 150.554 69.0272C150.245 69.0272 149.995 69.2774 149.995 69.5861C149.995 69.8947 150.245 70.1449 150.554 70.1449Z" fill="#D9D9D9"/>
<path d="M155.9 70.1449C156.209 70.1449 156.46 69.8947 156.46 69.5861C156.46 69.2774 156.209 69.0272 155.9 69.0272C155.591 69.0272 155.341 69.2774 155.341 69.5861C155.341 69.8947 155.591 70.1449 155.9 70.1449Z" fill="#D9D9D9"/>
<path d="M161.325 77.2819C161.325 77.2819 161.338 77.4897 161.343 77.8979C161.348 78.3159 161.354 78.9206 161.361 79.713C161.369 81.3227 161.38 83.6853 161.396 86.7461C161.41 92.8894 161.431 101.825 161.457 113.035C161.475 135.477 161.503 167.017 161.533 203.458V203.668H161.325C151.363 203.669 140.995 203.672 130.346 203.674H130.13V203.458C130.13 198.427 130.129 193.074 130.129 187.665C130.135 163.783 130.141 141.035 130.146 120.343C130.153 109.998 130.16 100.167 130.165 90.9672C130.169 86.3676 130.174 81.925 130.178 77.6548C130.153 73.3265 131.595 69.3188 133.358 65.8392C134.246 64.0886 135.219 62.4386 136.202 60.8555C137.205 59.2845 138.131 57.7271 139.195 56.3034C140.266 54.8934 141.457 53.6187 142.849 52.6612C144.277 51.7143 146.086 51.5572 147.583 52.0823C148.343 52.3311 149.001 52.7869 149.578 53.2668C150.164 53.7459 150.697 54.2637 151.188 54.7992C152.171 55.871 152.986 57.0128 153.698 58.1402C155.137 60.3804 156.421 62.4515 157.464 64.3801C159.59 68.2188 160.635 71.5107 161.013 73.7839C161.114 74.3524 161.192 74.8549 161.225 75.2921C161.273 75.7278 161.307 76.0942 161.308 76.3897C161.327 76.9791 161.325 77.2819 161.325 77.2819C161.325 77.2819 161.297 76.98 161.263 76.3913C161.255 76.0966 161.215 75.7318 161.16 75.2986C161.12 74.8629 161.036 74.3637 160.929 73.7992C160.523 71.5397 159.459 68.2743 157.318 64.4598C156.266 62.5441 154.975 60.4835 153.525 58.2513C152.811 57.1312 151.999 56.0063 151.024 54.9506C150.537 54.4231 150.008 53.915 149.431 53.4472C148.855 52.9729 148.233 52.5461 147.505 52.3101C146.073 51.8141 144.346 51.9727 142.993 52.877C141.646 53.8095 140.468 55.0738 139.416 56.4685C138.372 57.8729 137.445 59.4399 136.449 61.0077C135.474 62.5892 134.509 64.2352 133.631 65.9761C131.888 69.4412 130.478 73.3925 130.512 77.658C130.516 81.9283 130.52 86.3708 130.525 90.9705C130.531 100.171 130.538 110.001 130.545 120.345C130.55 141.036 130.556 163.784 130.562 187.664C130.562 193.074 130.561 198.426 130.561 203.457L130.346 203.242C140.994 203.245 151.363 203.246 161.325 203.25L161.116 203.457C161.147 167.018 161.174 135.479 161.193 113.037C161.219 101.826 161.24 92.891 161.254 86.7469C161.269 83.6861 161.28 81.3227 161.288 79.7138C161.296 78.9206 161.302 78.3159 161.306 77.8979C161.313 77.4897 161.325 77.2819 161.325 77.2819Z" fill="#D9D9D9"/>
<path d="M145.438 84.3359C141.03 84.3359 137.457 87.9056 137.457 92.3088H153.42C153.42 87.9056 149.846 84.3359 145.438 84.3359Z" fill="url(#paint23_linear_671_834)"/>
<path d="M129.116 211.884C129.116 209.608 130.221 207.456 132.115 206.046L135.587 203.458H157.54L160.58 205.849C162.379 207.263 163.419 209.356 163.419 211.565V211.884H129.116Z" fill="#E0E0E0"/>
<path d="M129.116 211.884C129.116 211.871 129.35 211.857 129.795 211.844C130.277 211.835 130.929 211.822 131.753 211.806C133.496 211.79 135.958 211.769 139.008 211.74C145.198 211.723 153.759 211.698 163.419 211.669L163.204 211.884C163.264 210.38 162.822 208.806 161.878 207.51C161.301 206.686 160.539 206.074 159.735 205.459C158.948 204.838 158.172 204.229 157.407 203.627L157.539 203.672C148.984 203.649 141.361 203.627 135.586 203.61L135.676 203.58C134.293 204.601 133.04 205.525 131.936 206.34C130.876 207.179 130.211 208.171 129.812 209.028C129.034 210.778 129.188 211.902 129.116 211.884C129.116 211.884 129.076 211.62 129.117 211.113C129.156 210.608 129.279 209.856 129.66 208.96C130.044 208.072 130.705 207.038 131.784 206.154C132.88 205.322 134.122 204.38 135.495 203.337L135.534 203.308H135.585C141.36 203.292 148.984 203.27 157.538 203.245H157.612L157.67 203.291C158.435 203.891 159.213 204.503 160.002 205.121C160.786 205.717 161.627 206.392 162.229 207.257C163.229 208.62 163.699 210.327 163.633 211.884L163.624 212.099H163.417C153.758 212.071 145.196 212.046 139.006 212.029C135.957 212 133.494 211.978 131.752 211.963C130.928 211.946 130.275 211.934 129.794 211.925C129.35 211.912 129.116 211.898 129.116 211.884Z" fill="#D9D9D9"/>
<path d="M164.285 215.834H128.691C127.663 215.834 126.83 215.002 126.83 213.975V213.742C126.83 212.717 127.663 211.883 128.691 211.883H164.285C165.313 211.883 166.147 212.716 166.147 213.742V213.975C166.146 215.002 165.313 215.834 164.285 215.834Z" fill="url(#paint24_linear_671_834)"/>
<path d="M146.1 205.717H126.19V186.012C126.19 180.678 130.518 176.357 135.856 176.357H136.434C141.773 176.357 146.1 180.678 146.1 186.012V205.717Z" fill="#EBEBEB"/>
<path d="M146.1 205.717C146.095 205.712 146.09 205.628 146.084 205.468C146.08 205.285 146.074 205.056 146.068 204.772C146.06 204.133 146.048 203.246 146.033 202.122C146.014 199.81 145.986 196.519 145.952 192.468C145.939 190.438 145.926 188.217 145.912 185.836C145.89 183.485 144.883 180.965 142.94 179.155C141.978 178.249 140.8 177.524 139.492 177.077C138.18 176.612 136.758 176.497 135.304 176.596C132.429 176.721 129.554 178.342 127.911 180.916C127.294 181.875 126.844 182.934 126.618 184.032C126.377 185.127 126.406 186.243 126.404 187.37C126.402 189.61 126.399 191.794 126.397 193.913C126.387 198.147 126.378 202.115 126.369 205.716L126.19 205.537C132.149 205.576 137.098 205.608 140.593 205.629C142.315 205.649 143.677 205.666 144.642 205.677C145.091 205.685 145.446 205.691 145.718 205.697C145.964 205.704 146.094 205.711 146.1 205.717C146.107 205.723 145.99 205.73 145.757 205.737C145.494 205.742 145.149 205.748 144.715 205.757C143.758 205.769 142.411 205.784 140.706 205.803C137.184 205.825 132.196 205.858 126.19 205.896L126.011 205.897V205.716C126.003 202.114 125.993 198.147 125.983 193.913C125.981 191.794 125.978 189.61 125.976 187.37C125.977 186.263 125.944 185.093 126.195 183.941C126.431 182.793 126.901 181.684 127.546 180.681C129.263 177.988 132.274 176.298 135.279 176.171C136.751 176.072 138.265 176.195 139.625 176.684C140.99 177.155 142.216 177.917 143.215 178.864C145.232 180.758 146.265 183.389 146.272 185.828C146.264 188.239 146.256 190.488 146.249 192.544C146.215 196.606 146.187 199.905 146.168 202.223C146.153 203.33 146.141 204.202 146.132 204.829C146.126 205.104 146.12 205.324 146.116 205.499C146.111 205.649 146.106 205.722 146.1 205.717Z" fill="#D9D9D9"/>
<path d="M210.805 196.59V170.972L176.139 137.001L161.367 90.7765V203.458L210.805 196.59Z" fill="url(#paint25_linear_671_834)"/>
<path d="M161.325 203.458L161.367 195.795L210.805 189.543V196.59L161.325 203.458Z" fill="url(#paint26_linear_671_834)"/>
<path d="M210.805 196.59C210.805 196.59 210.519 196.642 209.947 196.729C209.359 196.813 208.508 196.94 207.394 197.102C205.13 197.425 201.815 197.9 197.554 198.511C188.98 199.723 176.612 201.471 161.39 203.621L161.205 203.647L161.204 203.459C161.19 178.871 161.171 146.324 161.152 110.73C161.152 103.953 161.153 97.2869 161.154 90.7773V89.4003L161.573 90.712C166.864 107.295 171.841 122.896 176.322 136.943L176.273 136.866C190.121 150.472 201.966 162.113 210.892 170.885L210.93 170.922V170.973C210.901 179.079 210.878 185.491 210.863 189.891C210.849 192.067 210.839 193.742 210.832 194.887C210.826 195.442 210.822 195.867 210.818 196.166C210.814 196.45 210.805 196.59 210.805 196.59C210.805 196.59 210.796 196.436 210.791 196.143C210.788 195.84 210.784 195.409 210.777 194.844C210.77 193.695 210.76 192.01 210.748 189.823C210.731 185.44 210.709 179.051 210.681 170.973L210.718 171.06C201.767 162.314 189.89 150.706 176.005 137.137L175.972 137.104L175.957 137.059C171.462 123.016 166.469 107.42 161.161 90.8425L161.58 90.7773C161.581 97.2861 161.582 103.953 161.583 110.73C161.562 146.324 161.544 178.871 161.53 203.459L161.344 203.297C176.539 201.223 188.881 199.537 197.44 198.368C201.72 197.791 205.05 197.343 207.324 197.036C208.452 196.888 209.316 196.775 209.91 196.697C210.495 196.62 210.805 196.59 210.805 196.59Z" fill="#D9D9D9"/>
<g opacity="0.3">
<path d="M168.609 202.263V184.267C168.609 184.267 168.036 177.948 163.419 176.357V102.404L161.367 90.7772V203.639L168.609 202.263Z" fill="black"/>
</g>
<path d="M166.146 205.717H146.236V186.012C146.236 180.678 150.563 176.357 155.901 176.357H156.48C161.818 176.357 166.146 180.678 166.146 186.012V205.717Z" fill="#EBEBEB"/>
<path d="M166.146 205.717C166.14 205.712 166.135 205.628 166.129 205.468C166.125 205.285 166.12 205.056 166.113 204.772C166.104 204.133 166.093 203.246 166.078 202.122C166.059 199.81 166.031 196.519 165.996 192.468C165.983 190.438 165.97 188.217 165.956 185.836C165.934 183.485 164.928 180.965 162.984 179.155C162.022 178.249 160.844 177.524 159.535 177.077C158.223 176.612 156.801 176.497 155.347 176.596C152.473 176.721 149.597 178.342 147.954 180.916C147.338 181.875 146.888 182.934 146.662 184.032C146.422 185.127 146.451 186.243 146.448 187.37C146.446 189.61 146.444 191.794 146.441 193.913C146.431 198.147 146.423 202.115 146.414 205.716L146.234 205.537C152.194 205.576 157.142 205.608 160.638 205.629C162.359 205.649 163.72 205.666 164.686 205.677C165.134 205.685 165.49 205.691 165.762 205.697C166.01 205.704 166.14 205.711 166.146 205.717C166.153 205.723 166.035 205.73 165.802 205.737C165.539 205.742 165.194 205.748 164.76 205.757C163.803 205.769 162.456 205.784 160.751 205.803C157.229 205.825 152.241 205.858 146.235 205.896L146.055 205.897V205.716C146.047 202.114 146.038 198.147 146.028 193.913C146.025 191.794 146.023 189.61 146.02 187.37C146.021 186.263 145.988 185.093 146.24 183.941C146.475 182.793 146.945 181.684 147.59 180.681C149.307 177.988 152.319 176.298 155.323 176.171C156.796 176.072 158.31 176.195 159.67 176.684C161.035 177.155 162.261 177.917 163.259 178.864C165.276 180.758 166.309 183.389 166.315 185.828C166.307 188.239 166.299 190.488 166.294 192.544C166.26 196.606 166.232 199.905 166.212 202.223C166.197 203.33 166.186 204.202 166.177 204.829C166.17 205.104 166.165 205.324 166.161 205.499C166.157 205.649 166.151 205.722 166.146 205.717Z" fill="#D9D9D9"/>
<path d="M145.836 116.461C154.23 116.461 161.034 116.364 161.034 116.244C161.034 116.125 154.23 116.028 145.836 116.028C137.442 116.028 130.637 116.125 130.637 116.244C130.637 116.364 137.442 116.461 145.836 116.461Z" fill="#D9D9D9"/>
<path d="M145.836 149.156C154.23 149.156 161.034 149.059 161.034 148.939C161.034 148.82 154.23 148.723 145.836 148.723C137.442 148.723 130.637 148.82 130.637 148.939C130.637 149.059 137.442 149.156 145.836 149.156Z" fill="#D9D9D9"/>
<g opacity="0.3">
<path d="M146.485 84.406L139.862 92.308H144.416L149.701 85.5704C149.701 85.5704 147.751 84.4712 146.485 84.406Z" fill="white"/>
</g>
<defs>
<linearGradient id="paint0_linear_671_834" x1="286.391" y1="150.467" x2="286.391" y2="193.592" gradientUnits="userSpaceOnUse">
<stop stop-color="#7262F6"/>
<stop offset="1" stop-color="white"/>
</linearGradient>
<linearGradient id="paint1_linear_671_834" x1="293.982" y1="140.037" x2="293.982" y2="193.592" gradientUnits="userSpaceOnUse">
<stop stop-color="#D9D9D9"/>
<stop offset="1" stop-color="white"/>
</linearGradient>
<linearGradient id="paint2_linear_671_834" x1="317.642" y1="181.356" x2="317.642" y2="193.592" gradientUnits="userSpaceOnUse">
<stop stop-color="#7262F6"/>
<stop offset="1" stop-color="white"/>
</linearGradient>
<linearGradient id="paint3_linear_671_834" x1="324.708" y1="156.155" x2="324.708" y2="193.592" gradientUnits="userSpaceOnUse">
<stop stop-color="#D9D9D9"/>
<stop offset="1" stop-color="white"/>
</linearGradient>
<linearGradient id="paint4_linear_671_834" x1="346.789" y1="132.039" x2="346.789" y2="193.592" gradientUnits="userSpaceOnUse">
<stop stop-color="#7262F6"/>
<stop offset="1" stop-color="white"/>
</linearGradient>
<linearGradient id="paint5_linear_671_834" x1="354.906" y1="178.916" x2="354.906" y2="193.591" gradientUnits="userSpaceOnUse">
<stop stop-color="#D9D9D9"/>
<stop offset="1" stop-color="white"/>
</linearGradient>
<linearGradient id="paint6_linear_671_834" x1="375.939" y1="138.272" x2="375.939" y2="193.592" gradientUnits="userSpaceOnUse">
<stop stop-color="#7262F6"/>
<stop offset="1" stop-color="white"/>
</linearGradient>
<linearGradient id="paint7_linear_671_834" x1="383.003" y1="161.79" x2="383.003" y2="193.592" gradientUnits="userSpaceOnUse">
<stop stop-color="#D9D9D9"/>
<stop offset="1" stop-color="white"/>
</linearGradient>
<linearGradient id="paint8_linear_671_834" x1="56.6698" y1="303.004" x2="56.6698" y2="349.168" gradientUnits="userSpaceOnUse">
<stop stop-color="white"/>
<stop offset="1" stop-color="#F7F7FB"/>
</linearGradient>
<linearGradient id="paint9_linear_671_834" x1="242.286" y1="303.004" x2="242.286" y2="349.168" gradientUnits="userSpaceOnUse">
<stop stop-color="white"/>
<stop offset="1" stop-color="#F7F7FB"/>
</linearGradient>
<linearGradient id="paint10_linear_671_834" x1="106.762" y1="47.8347" x2="106.762" y2="183.465" gradientUnits="userSpaceOnUse">
<stop stop-color="#7262F6"/>
<stop offset="1" stop-color="white"/>
</linearGradient>
<linearGradient id="paint11_linear_671_834" x1="183.269" y1="48.3187" x2="183.269" y2="183.95" gradientUnits="userSpaceOnUse">
<stop stop-color="#7262F6"/>
<stop offset="1" stop-color="white"/>
</linearGradient>
<linearGradient id="paint12_linear_671_834" x1="145.439" y1="9.77942" x2="145.439" y2="199.81" gradientUnits="userSpaceOnUse">
<stop stop-color="#E0E0E0"/>
<stop offset="1" stop-color="white"/>
</linearGradient>
<linearGradient id="paint13_linear_671_834" x1="104.614" y1="198.363" x2="104.614" y2="207.202" gradientUnits="userSpaceOnUse">
<stop stop-color="#F7F7FB"/>
<stop offset="1" stop-color="white" stop-opacity="0"/>
</linearGradient>
<linearGradient id="paint14_linear_671_834" x1="104.35" y1="205.969" x2="104.35" y2="212.03" gradientUnits="userSpaceOnUse">
<stop stop-color="#F7F7FB"/>
<stop offset="1" stop-color="white" stop-opacity="0"/>
</linearGradient>
<linearGradient id="paint15_linear_671_834" x1="104.485" y1="211.268" x2="104.485" y2="213.675" gradientUnits="userSpaceOnUse">
<stop stop-color="#F7F7FB"/>
<stop offset="1" stop-color="white" stop-opacity="0"/>
</linearGradient>
<linearGradient id="paint16_linear_671_834" x1="105.628" y1="90.7765" x2="105.628" y2="203.458" gradientUnits="userSpaceOnUse">
<stop stop-color="#F5F5F5"/>
<stop offset="1" stop-color="white" stop-opacity="0"/>
</linearGradient>
<linearGradient id="paint17_linear_671_834" x1="105.625" y1="188.13" x2="105.625" y2="203.458" gradientUnits="userSpaceOnUse">
<stop stop-color="#7262F6"/>
<stop offset="1" stop-color="white"/>
</linearGradient>
<linearGradient id="paint18_linear_671_834" x1="183.833" y1="198.363" x2="183.833" y2="207.202" gradientUnits="userSpaceOnUse">
<stop stop-color="#F7F7FB"/>
<stop offset="1" stop-color="white" stop-opacity="0"/>
</linearGradient>
<linearGradient id="paint19_linear_671_834" x1="183.57" y1="205.969" x2="183.57" y2="212.03" gradientUnits="userSpaceOnUse">
<stop stop-color="#F7F7FB"/>
<stop offset="1" stop-color="white" stop-opacity="0"/>
</linearGradient>
<linearGradient id="paint20_linear_671_834" x1="183.704" y1="211.268" x2="183.704" y2="213.675" gradientUnits="userSpaceOnUse">
<stop stop-color="#F7F7FB"/>
<stop offset="1" stop-color="white" stop-opacity="0"/>
</linearGradient>
<linearGradient id="paint21_linear_671_834" x1="145.836" y1="51.9054" x2="145.836" y2="203.458" gradientUnits="userSpaceOnUse">
<stop stop-color="#F5F5F5"/>
<stop offset="1" stop-color="white" stop-opacity="0"/>
</linearGradient>
<linearGradient id="paint22_linear_671_834" x1="145.824" y1="51.9373" x2="145.824" y2="72.2507" gradientUnits="userSpaceOnUse">
<stop stop-color="#7262F6"/>
<stop offset="1" stop-color="white"/>
</linearGradient>
<linearGradient id="paint23_linear_671_834" x1="145.438" y1="84.3359" x2="145.438" y2="92.3088" gradientUnits="userSpaceOnUse">
<stop stop-color="#D9D9D9"/>
<stop offset="1" stop-color="white"/>
</linearGradient>
<linearGradient id="paint24_linear_671_834" x1="146.488" y1="211.883" x2="146.488" y2="215.834" gradientUnits="userSpaceOnUse">
<stop stop-color="#7262F6"/>
<stop offset="1" stop-color="white"/>
</linearGradient>
<linearGradient id="paint25_linear_671_834" x1="186.086" y1="90.7765" x2="186.086" y2="203.458" gradientUnits="userSpaceOnUse">
<stop stop-color="#F5F5F5"/>
<stop offset="1" stop-color="white" stop-opacity="0"/>
</linearGradient>
<linearGradient id="paint26_linear_671_834" x1="186.065" y1="189.543" x2="186.065" y2="203.458" gradientUnits="userSpaceOnUse">
<stop stop-color="#7262F6"/>
<stop offset="1" stop-color="white"/>
</linearGradient>
</defs>
</svg>
